<svg version="1.1" id="bars" role="img" xmlns="http://www.w3.org/2000/svg" xmlns:xlink="http://www.w3.org/1999/xlink" x="0px" y="0px"
	 viewBox="0 0 448 420.9" style="enable-background:new 0 0 448 420.9;" xml:space="preserve">
<style type="text/css">
	.st0{fill:#fff;}
</style>
<path class="st0" d="M0,80c0-8.8,7.2-16,16-16h416c8.8,0,16,7.2,16,16s-7.2,16-16,16H16C7.2,96,0,88.8,0,80z M0,210
	c0-8.8,7.2-16,16-16h416c8.8,0,16,7.2,16,16s-7.2,16-16,16H16C7.2,226,0,218.8,0,210z M432,356H16c-8.8,0-16-7.2-16-16s7.2-16,16-16
	h416c8.8,0,16,7.2,16,16S440.8,356,432,356z"/>
</svg>
